# xmcd
#
# Track frame offsets:
#	150
#	18078
#	32848
#	48223
#	62220
#	73055
#	87115
#	104460
#	121283
#	135258
#	153570
#
# Disc length: 2235 seconds
#
# Revision: 1
# Processed by: cddbd v1.5.1PL0 Copyright (c) Steve Scherf et al.
# Submitted via: audiograbber 1.82.02
#
DISCID=8a08b90b
DTITLE=Roger Midtsian - Tonight
DYEAR=1994
DGENRE=Country
TTITLE0=Lonely Without You
TTITLE1=Highway Roller
TTITLE2=Long Time No See
TTITLE3=Time Heels The Pain
TTITLE4=Feel A Little Free (I 180)
TTITLE5=Bad Memory
TTITLE6=My Love For You
TTITLE7=Tonight
TTITLE8=What Love Can Do
TTITLE9=Island
TTITLE10=Closing Time
EXTD=
EXTT0=
EXTT1=
EXTT2=
EXTT3=
EXTT4=
EXTT5=
EXTT6=
EXTT7=
EXTT8=
EXTT9=
EXTT10=
PLAYORDER=
